<?xml version="1.0" encoding="iso-8859-1"?>
<!-- Generator: Adobe Illustrator 19.0.0, SVG Export Plug-In . SVG Version: 6.00 Build 0)  -->
<svg version="1.1" id="Capa_1" xmlns="http://www.w3.org/2000/svg" xmlns:xlink="http://www.w3.org/1999/xlink" x="0px" y="0px"
	 viewBox="0 0 512 512" style="enable-background:new 0 0 512 512;" xml:space="preserve">
<path style="fill:#FFEC97;" d="M512,512H0V256c0-68.38,26.629-132.667,74.98-181.02C123.333,26.629,187.62,0,256,0
	s132.667,26.629,181.02,74.98C485.371,123.333,512,187.62,512,256V512z"/>
<path style="fill:#FFC473;" d="M512,256c0-68.38-26.629-132.667-74.98-181.02C388.667,26.629,324.38,0,256,0v512h256V256z"/>
<polygon style="fill:#FFD400;" points="482,186 286.375,186 400.688,71.687 379.475,50.474 271,158.948 271,15 241,15 241,158.948 
	132.525,50.474 111.313,71.687 225.625,186 30,186 30,216 255.625,216 256,216.375 256.375,216 482,216 "/>
<rect x="131" y="323" style="fill:#006659;" width="30" height="113"/>
<path style="fill:#00AD00;" d="M181,368c-27.57,0-50-22.43-50-50s22.43-50,50-50h50v50C231,345.57,208.57,368,181,368z"/>
<path style="fill:#6BCD00;" d="M111,416c-27.57,0-50-22.43-50-50v-50h50c27.57,0,50,22.43,50,50S138.57,416,111,416z"/>
<polygon style="fill:#FF9A00;" points="286.375,186 400.688,71.687 379.475,50.474 271,158.948 271,15 256,15 256,216.375 
	256.375,216 482,216 482,186 "/>
<path style="fill:#FFD400;" d="M512,512H0V256c0-68.38,26.629-132.667,74.98-181.02C123.333,26.629,187.62,0,256,0
	s132.667,26.629,181.02,74.98C485.371,123.333,512,187.62,512,256V512z M30,482h452V256c0-60.367-23.508-117.12-66.194-159.806
	S316.367,30,256,30S138.88,53.508,96.194,96.194S30,195.633,30,256V482z"/>
<path style="fill:#FF9A00;" d="M512,256c0-68.38-26.629-132.667-74.98-181.02C388.667,26.629,324.38,0,256,0v30
	c60.367,0,117.12,23.508,159.806,66.194S482,195.633,482,256v226H256v30h256V256z"/>
<rect x="351" y="323" style="fill:#006659;" width="30" height="113"/>
<path style="fill:#00AD00;" d="M401,368c-27.57,0-50-22.43-50-50s22.43-50,50-50h50v50C451,345.57,428.57,368,401,368z"/>
<path style="fill:#6BCD00;" d="M331,416c-27.57,0-50-22.43-50-50v-50h50c27.57,0,50,22.43,50,50S358.57,416,331,416z"/>
<path style="fill:#A17852;" d="M512,512H0v-90h512V512z"/>
<path style="fill:#715539;" d="M512,512H256v-90h256V512z"/>
<g>
</g>
<g>
</g>
<g>
</g>
<g>
</g>
<g>
</g>
<g>
</g>
<g>
</g>
<g>
</g>
<g>
</g>
<g>
</g>
<g>
</g>
<g>
</g>
<g>
</g>
<g>
</g>
<g>
</g>
</svg>
