<?xml version="1.0" encoding="iso-8859-1"?>
<!-- Generator: Adobe Illustrator 19.0.0, SVG Export Plug-In . SVG Version: 6.00 Build 0)  -->
<svg version="1.1" id="Layer_1" xmlns="http://www.w3.org/2000/svg" xmlns:xlink="http://www.w3.org/1999/xlink" x="0px" y="0px"
	 viewBox="0 0 511.999 511.999" style="enable-background:new 0 0 511.999 511.999;" xml:space="preserve">
<path style="fill:#70C449;" d="M344.399,39.365c-52.087-15.576-101.483-1.522-132.882,12.367l-34.272,18.738l0.002,0.014
	c11.308,10.717,29.365,18.144,50.537,31.279c30.524,1.14,61.309,13.541,82.031,32.844c10.258,9.556,20.08,26.344,26.574,38.874
	c26.99-10.701,63.517-19.521,94.395-18.366c14.606,0.547,25.286-5.691,38.969-2.394C482.185,53.979,417.548,61.241,344.399,39.365z"
	/>
<path style="fill:#6AB742;" d="M35.469,137.389l-12.541,22.942c36.759,2.655,96.384,60.346,92.823,33.13
	c3.731,28.513,5.436,6.246,5.004,6.113c17.323-49.213,60.106-105.895,114.983-103.844C125.273,27.206,60.801,97.805,35.469,137.389z
	"/>
<path style="fill:#43A838;" d="M306.44,129.909c-2.33,0-4.646-0.97-6.294-2.868c-3.021-3.474-2.652-8.739,0.822-11.759
	c1.28-1.114,32.099-27.243,95.502-23.838c4.597,0.247,8.125,4.172,7.879,8.771c-0.248,4.597-4.164,8.099-8.771,7.878
	c-56.735-3.03-83.41,19.544-83.673,19.772C310.328,129.237,308.38,129.909,306.44,129.909z"/>
<path style="fill:#B0E046;" d="M245.961,264.864c24.318-40.403,69.901-78.794,93.858-103.077
	c-19.615-37.838-58.448-64.35-104.081-66.057c-54.877-2.053-102.663,32.369-119.987,81.582
	C189.666,217.357,239.479,308.705,245.961,264.864z"/>
<path style="fill:#A0C638;" d="M174.883,180.869c-1.854,0-3.719-0.615-5.265-1.877c-3.568-2.91-4.1-8.162-1.188-11.729
	c10.898-13.354,30.798-29.854,63.712-32.624c4.598-0.388,8.621,3.02,9.007,7.608c0.386,4.588-3.021,8.619-7.609,9.005
	c-21.748,1.829-39.309,10.763-52.192,26.552C179.698,179.822,177.301,180.869,174.883,180.869z"/>
<path style="fill:#4BAA3D;" d="M236.083,476.444c36.943-52.91-6.881-70.428,3.043-114.075
	c13.893-61.098,23.897-76.977-4.858-111.051c0,0-56.717-81.905-217.79-91.41c-2.693-0.029-12.25,0.685-14.148,12.043
	c-1.103,8.365-1.836,16.852-2.157,25.453c-0.139,3.707-0.18,7.395-0.171,11.072c3.082,36.033,11.848,86.577,35.528,133.516
	c42.193,73.985,118.237,126.555,207.873,135.881c0.854-0.033,1.713-0.036,2.56-0.084
	C242.647,477.399,239.351,476.962,236.083,476.444z"/>
<path style="fill:#43A838;" d="M329.911,117.223c-0.76,0-1.531-0.104-2.296-0.323c-4.426-1.266-6.988-5.88-5.722-10.306
	l9.912-34.668c1.264-4.427,5.882-6.991,10.306-5.723c4.427,1.266,6.99,5.88,5.724,10.307l-9.912,34.668
	C336.876,114.836,333.537,117.223,329.911,117.223z"/>
<path style="opacity:0.15;fill:#231F20;enable-background:new    ;" d="M54.701,349.113
	c-24.605-48.776-33.713-101.296-36.917-138.737c-0.009-3.821,0.032-7.654,0.178-11.505c0.335-8.937,1.096-17.757,2.243-26.449
	c1.204-7.195,5.362-10.274,9.061-11.58c-4.191-0.358-8.445-0.677-12.787-0.934c-2.693-0.029-12.25,0.685-14.148,12.043
	c-1.103,8.365-1.836,16.852-2.157,25.453c-0.139,3.707-0.18,7.395-0.171,11.072c3.082,36.033,11.848,86.577,35.528,133.516
	c29.369,51.501,75.147,92.619,130.489,116.003C119.401,432.789,80.812,394.898,54.701,349.113z"/>
<path style="fill:#43A838;" d="M501.756,171.976c-2.683-8.226-8.244-11.828-11.604-13.303
	c-19.766-6.887-40.864-11.015-62.871-11.837c-119.053-4.451-219.179,88.456-223.636,207.507
	c-1.672,44.729,10.4,86.786,32.439,122.102c9.367,1.483,18.904,2.489,28.62,2.851c54.371,2.034,105.166-14.307,146.406-43.467
	l18.191-14.227c48.383-41.746,79.953-102.713,82.529-171.607C512.848,222.839,509.227,196.597,501.756,171.976z"/>
<path style="opacity:0.15;fill:#231F20;enable-background:new    ;" d="M221.433,357.096
	c4.318-113.958,96.229-204.256,209.351-210.097c-1.166-0.062-2.332-0.12-3.503-0.163c-119.053-4.451-219.179,88.456-223.636,207.507
	c-1.672,44.729,10.4,86.786,32.439,122.102c5.676,0.899,11.423,1.596,17.226,2.106C231.596,443.239,219.754,401.468,221.433,357.096
	z"/>
<g>
	<path style="fill:#368C2A;" d="M203.657,379.388c-1.031,0-2.08-0.192-3.095-0.599C128.31,349.865,91.913,300.718,90.398,298.64
		c-2.711-3.721-1.892-8.935,1.829-11.647c3.719-2.711,8.932-1.893,11.644,1.825c0.535,0.724,35.494,47.512,102.888,74.492
		c4.274,1.711,6.352,6.563,4.64,10.837C210.095,377.406,206.964,379.388,203.657,379.388z"/>
	<path style="fill:#368C2A;" d="M168.641,362.37c-3.867,0-7.333-2.704-8.153-6.639L146.233,287.3
		c-0.939-4.507,1.954-8.922,6.461-9.861c4.511-0.935,8.922,1.954,9.861,6.462l14.256,68.431c0.939,4.507-1.954,8.922-6.461,9.861
		C169.777,362.313,169.204,362.37,168.641,362.37z"/>
	<path style="fill:#368C2A;" d="M255.374,459.946c-2.97,0-5.844-1.591-7.349-4.389c-2.181-4.055-0.66-9.11,3.394-11.289
		c132.471-71.222,170.905-186.989,171.278-188.151c1.408-4.384,6.104-6.798,10.486-5.388c4.384,1.407,6.796,6.101,5.389,10.486
		c-0.406,1.265-10.258,31.437-37.329,71.015c-24.88,36.376-69.7,87.89-141.928,126.722
		C258.059,459.625,256.706,459.946,255.374,459.946z"/>
	<path style="fill:#368C2A;" d="M322.029,415.095c-2.533,0-5.034-1.151-6.669-3.337c-1.414-1.885-34.456-46.932-24.077-111.774
		c0.727-4.546,5.006-7.646,9.55-6.913c4.546,0.727,7.641,5.003,6.913,9.549c-9.225,57.63,20.669,98.755,20.971,99.164
		c2.738,3.691,1.975,8.912-1.711,11.657C325.51,414.556,323.761,415.095,322.029,415.095z"/>
	<path style="fill:#368C2A;" d="M386.548,351.049c-3.97,0-7.488-2.846-8.199-6.893c-0.798-4.534,2.232-8.856,6.767-9.653
		l44.074-7.751c4.53-0.795,8.856,2.232,9.653,6.767c0.797,4.534-2.233,8.856-6.767,9.654l-44.074,7.751
		C387.514,351.008,387.029,351.049,386.548,351.049z"/>
</g>
<g>
</g>
<g>
</g>
<g>
</g>
<g>
</g>
<g>
</g>
<g>
</g>
<g>
</g>
<g>
</g>
<g>
</g>
<g>
</g>
<g>
</g>
<g>
</g>
<g>
</g>
<g>
</g>
<g>
</g>
</svg>
