<?xml version="1.0" encoding="iso-8859-1"?>
<!-- Generator: Adobe Illustrator 19.0.0, SVG Export Plug-In . SVG Version: 6.00 Build 0)  -->
<svg version="1.1" id="Capa_1" xmlns="http://www.w3.org/2000/svg" xmlns:xlink="http://www.w3.org/1999/xlink" x="0px" y="0px"
	 viewBox="0 0 512 512" style="enable-background:new 0 0 512 512;" xml:space="preserve">
<path style="fill:#F37D79;" d="M135.57,402.386H39.507C17.688,402.386,0,384.699,0,362.879c0-21.82,17.688-39.507,39.507-39.507
	h96.063c51.927,0,99.134-32.642,117.471-81.224c34.542-91.519,129.618-146.067,226.055-129.7
	c21.513,3.65,35.992,24.048,32.341,45.558c-3.648,21.513-24.034,36.002-45.558,32.341c-59.273-10.069-117.689,23.463-138.911,79.702
	c-14.747,39.073-40.699,72.28-75.05,96.031C217.566,389.832,177.333,402.386,135.57,402.386z"/>
<g>
	<path style="fill:#D86666;" d="M504.65,128.458c0.274,3.252,0.147,6.591-0.424,9.958c-3.648,21.513-24.034,36.002-45.558,32.341
		c-59.273-10.069-117.689,23.463-138.912,79.701c-30.023,79.544-106.063,132.337-191.396,132.337H32.296
		c-13.255,0-24.976-6.534-32.143-16.55c1.71,20.243,18.67,36.141,39.354,36.141h96.063c41.762,0,81.995-12.554,116.346-36.307
		c34.351-23.751,60.303-56.958,75.05-96.031c21.224-56.238,79.639-89.771,138.912-79.702c21.525,3.661,41.91-10.827,45.558-32.341
		C513.268,147.219,510.538,136.713,504.65,128.458z"/>
	<path style="fill:#D86666;" d="M362.314,127.006c-26.179,11.542-49.844,28.489-69.264,49.828
		c5.95,28.054,24.911,51.296,50.272,63.119c14.405-19.562,34.114-34.406,56.445-42.991
		C377.887,181.156,363.368,155.802,362.314,127.006z"/>
</g>
<path style="fill:#CC5C5C;" d="M383.14,181.435c-22.348,10.739-41.454,27.987-54.322,50.016c4.54,3.259,9.389,6.116,14.504,8.501
	c12.962-17.602,30.831-32.169,52.265-41.297c0.014-0.006,0.029-0.012,0.043-0.018c1.369-0.582,2.748-1.141,4.137-1.675
	C393.592,192.501,388.004,187.28,383.14,181.435z"/>
<path style="fill:#D86666;" d="M246.563,256.447c-11.342,21.384-28.602,38.806-49.223,50.511
	c9.983,26.709,32.234,47.432,59.901,55.306c22.884-16.914,41.769-38.159,55.763-62.593
	C284.772,296.216,260.565,279.748,246.563,256.447z"/>
<path style="fill:#CC5C5C;" d="M295.795,295.817c-15.998,22.799-36.529,42.091-60.563,56.842c6.8,4.124,14.187,7.378,22.008,9.603
	c0.001-0.001,0.002-0.002,0.003-0.003c2.844-2.102,5.626-4.272,8.345-6.506c0.033-0.027,0.066-0.055,0.099-0.082
	c14.97-12.315,28.053-26.626,38.925-42.59c0.006-0.009,0.012-0.018,0.018-0.027c2.956-4.343,5.747-8.804,8.367-13.378
	c0.001-0.003,0.003-0.005,0.004-0.008C307.07,298.944,301.316,297.636,295.795,295.817z"/>
<path style="fill:#D86666;" d="M167.136,399.956c-21.196-19.051-32.538-47.13-29.489-76.625c-3.311,0.057,7.44,0.041-58.388,0.041
	c-13.681,24.692-14.774,53.961-4.141,79.014C139.959,402.386,147.425,403.013,167.136,399.956z"/>
<path style="fill:#CC5C5C;" d="M151.444,381.503c-14.858,1.671-18.755,1.293-82.111,1.293c1.195,6.823,3.152,13.385,5.785,19.591
	c65.404,0,72.37,0.618,92.018-2.43C161.118,394.547,155.836,388.338,151.444,381.503z"/>
<path style="fill:#827F7D;" d="M457.875,145.935h-4.121c-4.267,0-7.727-3.459-7.727-7.727c0-4.268,3.459-7.727,7.727-7.727h4.121
	c4.267,0,7.727,3.459,7.727,7.727C465.603,142.476,462.142,145.935,457.875,145.935z"/>
<g>
</g>
<g>
</g>
<g>
</g>
<g>
</g>
<g>
</g>
<g>
</g>
<g>
</g>
<g>
</g>
<g>
</g>
<g>
</g>
<g>
</g>
<g>
</g>
<g>
</g>
<g>
</g>
<g>
</g>
</svg>
